{
  "asset": {
    "generator": "Khronos glTF Blender I/O v3.2.40",
    "version": "2.0"
  },
  "scene": 0,
  "scenes": [
    {
      "name": "Scene",
      "nodes": [
        0
      ]
    }
  ],
  "nodes": [
    {
      "mesh": 0,
      "name": "jug_01"
    }
  ],
  "materials": [
    {
      "doubleSided": true,
      "name": "jug_01",
      "normalTexture": {
        "index": 0
      },
      "pbrMetallicRoughness": {
        "baseColorTexture": {
          "index": 1
        },
        "metallicRoughnessTexture": {
          "index": 2
        }
      }
    }
  ],
  "meshes": [
    {
      "name": "Cylinder",
      "primitives": [
        {
          "attributes": {
            "POSITION": 0,
            "NORMAL": 1,
            "TEXCOORD_0": 2
          },
          "indices": 3,
          "material": 0
        }
      ]
    }
  ],
  "textures": [
    {
      "sampler": 0,
      "source": 0
    },
    {
      "sampler": 0,
      "source": 1
    },
    {
      "sampler": 0,
      "source": 2
    }
  ],
  "images": [
    {
      "mimeType": "image/jpeg",
      "name": "jug_01_nor_gl",
      "uri": "textures/jug_01_nor_gl_4k.jpg"
    },
    {
      "mimeType": "image/jpeg",
      "name": "jug_01_diff",
      "uri": "textures/jug_01_diff_4k.jpg"
    },
    {
      "mimeType": "image/jpeg",
      "name": "jug_01_metal-jug_01_rough",
      "uri": "textures/jug_01_arm_4k.jpg"
    }
  ],
  "accessors": [
    {
      "bufferView": 0,
      "componentType": 5126,
      "count": 3202,
      "max": [
        0.12299630045890808,
        0.21155454218387604,
        0.08376311510801315
      ],
      "min": [
        -0.1523253619670868,
        0.0002410906890872866,
        -0.08376311510801315
      ],
      "type": "VEC3"
    },
    {
      "bufferView": 1,
      "componentType": 5126,
      "count": 3202,
      "type": "VEC3"
    },
    {
      "bufferView": 2,
      "componentType": 5126,
      "count": 3202,
      "type": "VEC2"
    },
    {
      "bufferView": 3,
      "componentType": 5123,
      "count": 17310,
      "type": "SCALAR"
    }
  ],
  "bufferViews": [
    {
      "buffer": 0,
      "byteLength": 38424,
      "byteOffset": 0
    },
    {
      "buffer": 0,
      "byteLength": 38424,
      "byteOffset": 38424
    },
    {
      "buffer": 0,
      "byteLength": 25616,
      "byteOffset": 76848
    },
    {
      "buffer": 0,
      "byteLength": 34620,
      "byteOffset": 102464
    }
  ],
  "samplers": [
    {
      "magFilter": 9729,
      "minFilter": 9987
    }
  ],
  "buffers": [
    {
      "byteLength": 137084,
      "uri": "jug_01.bin"
    }
  ]
}